:SAMPLES-PER-SECOND 30
:FULLY-SPECIFIED
:DEGREES
425
root  1.3478 28.8412 56.7225 -106.894 77.3817 -117.711
RightUpLeg  -47.5731 -2.61715 -3.19906
RightLeg  40.3475 3.09306 2.2772
RightFoot  8.65424 -0.022276 0.671892
RightToes  -56.3485 -0.360404 -0.38772
Spine  6.53143 -5.69981 3.60776
Spine1  12.8671 -10.5828 2.90801
HEad  20.9438 29.3379 -14.3051
LeftShoulder1  0 -2.42657e-020 -4.95415e-022
LeftArm  -21.1187 24.6505 -85.884
LeftForeArm  44.1112 -35.893 -7.31264
LeftHand  -0.0181017 -7.35365 -0.0883411
RightShoulder  0 2.42657e-020 1.07489e-018
RightArm  -30.0467 3.84386 70.3715
RightForeArm  143.384 70.3607 149.822
RightHand  1.66366 26.2335 7.50276
LeftUpLeg  11.102 -7.80858 4.87003
LeftLeg  57.7091 4.27216 5.85045
LeftFoot  0.30275 -0.000422665 0.159972
LeftToes  -3.8905 2.37847e-007 4.89147e-008
426
root  4.38595 28.0929 57.2695 -110.695 72.2191 -118.968
RightUpLeg  -45.5037 -8.0255 3.08485
RightLeg  51.2888 4.38066 4.73361
RightFoot  0.162547 0.000225215 0.21784
RightToes  -60.048 -0.394999 -0.398341
Spine  7.75106 -3.93789 4.97373
Spine1  15.5261 -6.80208 4.34916
HEad  19.5944 28.5975 -15.3304
LeftShoulder1  0 -2.42657e-020 -4.95415e-022
LeftArm  -24.122 18.9167 -88.4533
LeftForeArm  43.9437 -32.5486 -6.44102
LeftHand  0.0116043 -7.61514 -0.544814
RightShoulder  0 2.42657e-020 1.07489e-018
RightArm  -27.2006 11.3237 70.0191
RightForeArm  140.362 73.4929 142.805
RightHand  1.82637 27.2821 7.88733
LeftUpLeg  2.5147 -8.67294 9.56218
LeftLeg  77.8949 1.25712 4.41283
LeftFoot  -4.33143 -0.00487684 -0.128968
LeftToes  -5.67455 2.37847e-007 4.89147e-008
427
root  6.95307 27.9524 57.3231 -120.683 68.1804 -129.215
RightUpLeg  -41.563 -12.982 4.80049
RightLeg  54.476 3.98936 4.81402
RightFoot  -7.05678 -0.0557211 -0.526167
RightToes  -60.6475 -0.400667 -0.399851
Spine  7.40653 -2.11282 5.67543
Spine1  15.0353 -3.38367 6.34683
HEad  21.2044 25.0992 -16.2936
LeftShoulder1  0 -2.42657e-020 -4.95415e-022
LeftArm  -22.7669 15.6822 -90.9506
LeftForeArm  42.6833 -31.3873 -6.1559
LeftHand  0.0121308 -6.41077 -0.587199
RightShoulder  0 2.42657e-020 1.07489e-018
RightArm  -23.2733 14.1722 70.9426
RightForeArm  134.791 76.6827 130.908
RightHand  0.779585 28.2427 3.46882
LeftUpLeg  -12.2666 -9.36118 10.9802
LeftLeg  93.791 -0.00847367 8.02603
LeftFoot  -10.5842 -0.114656 -1.23777
LeftToes  5.38129 2.37847e-007 4.89147e-008
428
root  9.4338 28.395 56.9287 -129.772 66.3076 -137.463
RightUpLeg  -33.9007 -12.9942 3.12421
RightLeg  52.6319 1.61512 1.79884
RightFoot  -10.8034 -0.0538462 -0.19191
RightToes  -60.0877 -0.395374 -0.396528
Spine  7.53748 0.130376 5.13519
Spine1  15.2638 0.994919 6.17138
HEad  23.6605 21.0989 -15.5185
LeftShoulder1  0 -2.42657e-020 -4.95415e-022
LeftArm  -18.967 14.8964 -91.7594
LeftForeArm  35.8118 -35.649 -7.25679
LeftHand  -0.005867 -6.66998 -0.269543
RightShoulder  0 2.42657e-020 1.07489e-018
RightArm  -17.6601 16.2484 73.1945
RightForeArm  97.3179 79.6968 78.6557
RightHand  -0.432079 29.3033 -1.28281
LeftUpLeg  -24.5901 -6.94211 7.77621
LeftLeg  99.6565 -1.17485 11.1486
LeftFoot  -16.0583 -0.404295 -2.86554
LeftToes  12.5806 2.37847e-007 4.89147e-008
429
root  12.0951 29.324 56.2235 -139.326 64.9969 -145.669
RightUpLeg  -22.8138 -10.4941 0.822882
RightLeg  45.8441 -2.28823 -2.10494
RightFoot  -11.3208 0.0464028 0.845771
RightToes  -58.3582 -0.379112 -0.393767
Spine  7.59221 2.03759 4.01827
Spine1  15.2174 4.73635 5.12187
HEad  28.8095 16.8042 -12.3823
LeftShoulder1  0 -2.42657e-020 -4.95415e-022
LeftArm  -15.7804 15.1104 -91.4945
LeftForeArm  33.5332 -39.1246 -8.24319
LeftHand  0.0369931 -6.78943 -0.994602
RightShoulder  0 2.42657e-020 1.07489e-018
RightArm  -10.9022 20.438 76.3871
RightForeArm  52.5766 62.9876 20.3166
RightHand  -1.84015 29.3011 -6.66209
LeftUpLeg  -32.7305 -5.84581 1.86573
LeftLeg  96.0343 -0.359966 8.85974
LeftFoot  -17.344 -0.358208 -2.34826
LeftToes  10.6718 2.37847e-007 4.89147e-008
430
root  14.8777 30.3387 55.1851 -150.712 61.0001 -156.715
RightUpLeg  -11.5259 -8.48227 -1.10243
RightLeg  38.3588 -7.68998 -5.30563
RightFoot  -7.19589 0.0747351 1.56622
RightToes  -59.7358 -0.392054 -0.397531
Spine  7.80518 4.08409 2.82313
Spine1  15.7139 10.2216 1.76324
HEad  35.851 12.3573 -7.27298
LeftShoulder1  0 -2.42657e-020 -4.95415e-022
LeftArm  -14.5443 13.8249 -91.0817
LeftForeArm  37.3764 -41.1391 -8.85728
LeftHand  -0.0100164 -8.11642 -0.228966
RightShoulder  0 2.42657e-020 1.07489e-018
RightArm  -11.4476 26.4004 79.7363
RightForeArm  50.5759 35.7001 7.25254
RightHand  -1.00731 29.4877 -3.45706
LeftUpLeg  -38.0624 -8.06306 -4.13849
LeftLeg  85.9052 0.907839 6.56768
LeftFoot  -17.5628 -0.214818 -1.39057
LeftToes  9.20836 2.37847e-007 4.89147e-008
431
root  17.7131 31.217 53.9924 -157.5 55.9619 -163.732
RightUpLeg  -3.21854 -9.57996 -2.07267
RightLeg  33.9208 -9.74113 -5.64185
RightFoot  2.19804 0.00122364 0.313664
RightToes  -67.7387 -0.468711 -0.413167
Spine  8.20649 6.33077 1.96337
Spine1  16.0589 16.1679 -1.07368
HEad  41.6032 7.03164 -2.53464
LeftShoulder1  0 -2.42657e-020 -4.95415e-022
LeftArm  -13.6435 11.4685 -91.2763
LeftForeArm  39.8609 -41.3188 -8.91138
LeftHand  -0.103962 -8.831 0.977104
RightShoulder  0 2.42657e-020 1.07489e-018
RightArm  -15.3055 30.1408 79.4087
RightForeArm  54.4445 20.7845 3.79868
RightHand  2.43212 26.4773 10.6841
LeftUpLeg  -39.683 -9.89284 -8.81629
LeftLeg  70.8979 3.07859 7.27002
LeftFoot  -17.8713 -0.26536 -1.68757
LeftToes  11.5805 2.37847e-007 4.89147e-008
432
root  20.5988 31.831 52.8056 -159.57 52.7337 -165.471
RightUpLeg  3.04381 -10.39 -2.2951
RightLeg  31.2905 -6.78291 -3.54266
RightFoot  12.2084 0.109159 -0.643107
RightToes  -69.6652 -0.487436 -0.415322
Spine  7.9781 8.28072 1.25096
Spine1  15.3733 20.3416 -1.65888
HEad  44.9232 0.766437 1.95985
LeftShoulder1  0 -2.42657e-020 -4.95415e-022
LeftArm  -14.8851 10.2944 -91.9999
LeftForeArm  42.045 -41.3179 -8.90818
LeftHand  -0.0841992 -9.20119 0.676887
RightShoulder  0 2.42657e-020 1.07489e-018
RightArm  -27.6497 31.9316 79.519
RightForeArm  74.2699 5.9045 0.969255
RightHand  4.10222 25.8081 18.1435
LeftUpLeg  -37.8329 -7.45103 -11.8883
LeftLeg  52.5498 4.89259 5.56963
LeftFoot  -16.8684 -0.237482 -1.60151
LeftToes  12.3038 2.37847e-007 4.89147e-008
433
root  23.6115 32.0707 51.6857 -158.373 50.592 -163.721
RightUpLeg  7.75073 -9.3216 -0.704578
RightLeg  29.8779 -1.63488 -0.812627
RightFoot  19.3648 0.00878552 0.326045
RightToes  -59.4105 -0.388989 -0.39667
Spine  6.94182 9.67585 0.546352
Spine1  13.3439 22.7711 -1.6823
HEad  46.389 -3.9672 6.84899
LeftShoulder1  0 -2.42657e-020 -4.95415e-022
LeftArm  -16.6982 11.5138 -91.2181
LeftForeArm  44.3193 -45.1334 -10.1987
LeftHand  -0.0707093 -9.83005 0.452607
RightShoulder  0 2.42657e-020 1.07489e-018
RightArm  -38.0495 26.5993 80.018
RightForeArm  74.4322 4.37215 0.698149
RightHand  2.70981 18.4553 16.9423
LeftUpLeg  -35.0306 -3.06998 -13.0406
LeftLeg  34.8447 0.0660638 0.0354953
LeftFoot  -13.4631 0.0412944 0.349848
LeftToes  2.32849 2.37847e-007 4.89147e-008
434
root  26.6573 31.905 50.5696 -156.912 46.8946 -161.752
RightUpLeg  11.227 -7.97087 2.53866
RightLeg  29.6055 1.11838 0.535132
RightFoot  19.4372 -0.130256 1.13804
RightToes  -49.492 -0.298395 -0.362231
Spine  6.06022 9.78003 0.409809
Spine1  11.7182 22.5235 -1.1946
HEad  46.0143 -5.94598 10.0261
LeftShoulder1  0 -2.42657e-020 -4.95415e-022
LeftArm  -18.1819 14.007 -90.0385
LeftForeArm  46.5302 -52.3643 -13.2316
LeftHand  -0.112645 -10.3852 0.870101
RightShoulder  0 2.42657e-020 1.07489e-018
RightArm  -42.6101 22.5818 81.4432
RightForeArm  80.6517 4.8924 0.772122
RightHand  1.8156 17.0257 12.4605
LeftUpLeg  -33.3226 -1.62562 -12.4373
LeftLeg  25.7921 -1.07233 -0.438743
LeftFoot  -13.3464 0.0567291 0.484856
LeftToes  3.06117 2.37847e-007 4.89147e-008
